<svg xmlns="http://www.w3.org/2000/svg" xmlns:xlink="http://www.w3.org/1999/xlink" width="200" zoomAndPan="magnify" viewBox="0 0 150 74.999997" height="100" preserveAspectRatio="xMidYMid meet" version="1.0"><defs><g/><clipPath id="295b346020"><path d="M 41.667969 17 L 79 17 L 79 36 L 41.667969 36 Z M 41.667969 17 " clip-rule="nonzero"/></clipPath><clipPath id="84c6b6895f"><path d="M 58 13.355469 L 78 13.355469 L 78 22 L 58 22 Z M 58 13.355469 " clip-rule="nonzero"/></clipPath></defs><g clip-path="url(#295b346020)"><path fill="#20468f" d="M 76.625 33.832031 L 56.40625 33.714844 L 56.472656 20.476562 L 76.625 25.390625 Z M 77.597656 33.835938 L 77.597656 22.664062 L 56.476562 17 L 42.945312 19.347656 L 42.945312 22.25 L 44.601562 22.25 L 44.601562 33.570312 L 41.976562 33.570312 L 41.976562 35.777344 L 78.976562 35.777344 L 78.976562 33.84375 L 77.597656 33.835938 " fill-opacity="1" fill-rule="nonzero"/></g><path fill="#20468f" d="M 62.972656 24.675781 L 58.832031 23.605469 L 58.832031 34.035156 L 62.972656 34.035156 L 62.972656 24.675781 " fill-opacity="1" fill-rule="nonzero"/><path fill="#20468f" d="M 70.964844 27.308594 L 67.167969 26.34375 L 67.167969 31.152344 L 70.964844 31.152344 L 70.964844 27.308594 " fill-opacity="1" fill-rule="nonzero"/><path fill="#20468f" d="M 75.785156 28.453125 L 73.390625 27.867188 L 73.390625 30.875 L 75.785156 30.875 L 75.785156 28.453125 " fill-opacity="1" fill-rule="nonzero"/><path fill="#20468f" d="M 71.589844 18.382812 C 71.65625 18.316406 71.699219 18.1875 71.640625 18.09375 C 71.566406 17.960938 71.203125 17.890625 71.046875 17.847656 L 70.757812 18.34375 C 71.019531 18.414062 71.398438 18.566406 71.589844 18.382812 " fill-opacity="1" fill-rule="nonzero"/><path fill="#20468f" d="M 67.289062 18.066406 C 67.988281 18.257812 68.550781 17.148438 67.78125 16.941406 C 67.070312 16.75 66.515625 17.855469 67.289062 18.066406 " fill-opacity="1" fill-rule="nonzero"/><g clip-path="url(#84c6b6895f)"><path fill="#20468f" d="M 60.277344 15.917969 C 60.59375 16.515625 61.265625 16.355469 61.039062 16.050781 C 60.902344 15.875 60.695312 15.820312 60.550781 15.585938 C 60.378906 15.308594 60.546875 14.960938 60.84375 14.839844 C 61.191406 14.683594 61.789062 14.824219 62.03125 15.28125 L 61.671875 15.484375 C 61.371094 15.011719 60.886719 15.097656 60.949219 15.347656 C 60.980469 15.453125 61.289062 15.664062 61.371094 15.746094 C 61.621094 15.988281 61.585938 16.28125 61.390625 16.488281 C 60.996094 16.914062 60.125 16.644531 59.894531 16.097656 Z M 63.65625 15.855469 L 63.859375 15.503906 L 65.410156 15.921875 L 65.203125 16.273438 L 64.632812 16.121094 L 63.832031 17.503906 L 63.421875 17.390625 L 64.226562 16.011719 Z M 68.484375 16.976562 C 68.886719 17.679688 68.109375 18.695312 67.140625 18.429688 C 66.75 18.328125 66.519531 18.046875 66.480469 17.714844 C 66.347656 16.644531 67.96875 16.066406 68.484375 16.976562 Z M 70.835938 17.394531 C 71.425781 17.554688 72.285156 17.65625 72.097656 18.339844 C 72 18.707031 71.707031 18.859375 71.316406 18.847656 L 71.460938 19.570312 L 70.996094 19.441406 L 70.867188 18.765625 L 70.5625 18.683594 L 70.238281 19.238281 L 69.828125 19.128906 Z M 74.238281 18.3125 L 75.632812 18.695312 L 75.4375 19.03125 L 74.449219 18.761719 L 74.242188 19.121094 L 75.113281 19.351562 L 74.917969 19.6875 L 74.046875 19.453125 L 73.832031 19.816406 L 74.835938 20.089844 L 74.640625 20.429688 L 73.230469 20.046875 Z M 58.496094 17.023438 L 75.105469 21.527344 C 75.140625 21.535156 75.175781 21.519531 75.191406 21.492188 L 77.078125 18.21875 C 77.101562 18.171875 77.078125 18.117188 77.03125 18.105469 L 60.140625 13.332031 C 60.105469 13.320312 60.066406 13.339844 60.046875 13.375 L 58.441406 16.921875 C 58.421875 16.960938 58.445312 17.011719 58.496094 17.023438 " fill-opacity="1" fill-rule="nonzero"/></g><path fill="#20468f" d="M 105.5625 28.085938 L 101.125 28.085938 L 101.125 26.269531 L 106.289062 26.269531 Z M 104.371094 31.0625 L 101.125 31.0625 L 101.125 29.25 L 105.097656 29.25 Z M 99.960938 28.085938 C 98.167969 28.085938 96.882812 28.085938 95.085938 28.085938 L 94.675781 26.269531 C 102.722656 26.269531 98.710938 26.269531 99.960938 26.269531 Z M 99.960938 31.0625 L 95.757812 31.0625 L 95.347656 29.25 L 99.960938 29.25 Z M 107.382812 25.109375 C 104.613281 25.109375 97.191406 25.109375 94.414062 25.109375 L 93.96875 23.144531 L 91.359375 23.136719 C 90.464844 22.730469 90.113281 23.847656 90.773438 24.148438 L 92.964844 23.964844 C 94.871094 32.394531 94.683594 32.226562 95.167969 32.226562 C 98.789062 32.226562 101.285156 32.226562 104.875 32.226562 C 105.28125 32.226562 105.09375 32.382812 107.777344 25.691406 C 107.886719 25.414062 107.683594 25.109375 107.382812 25.109375 " fill-opacity="1" fill-rule="nonzero"/><path fill="#20468f" d="M 96.21875 34.375 C 96.21875 33.441406 97.628906 33.441406 97.628906 34.375 C 97.628906 35.308594 96.21875 35.308594 96.21875 34.375 Z M 96.328125 33.109375 C 94.972656 33.75 95.433594 35.777344 96.925781 35.777344 C 97.699219 35.777344 98.324219 35.148438 98.324219 34.375 C 98.324219 33.355469 97.257812 32.667969 96.328125 33.109375 " fill-opacity="1" fill-rule="nonzero"/><path fill="#20468f" d="M 102.582031 34.375 C 102.582031 33.441406 103.992188 33.441406 103.992188 34.375 C 103.992188 35.308594 102.582031 35.308594 102.582031 34.375 Z M 103.289062 32.972656 C 102.515625 32.972656 101.882812 33.601562 101.882812 34.375 C 101.882812 35.148438 102.515625 35.777344 103.289062 35.777344 C 104.058594 35.777344 104.691406 35.148438 104.691406 34.375 C 104.691406 33.601562 104.058594 32.972656 103.289062 32.972656 " fill-opacity="1" fill-rule="nonzero"/><path fill="#20468f" d="M 88.285156 18.179688 C 89.421875 18.097656 90.273438 17.105469 90.191406 15.964844 C 90.101562 14.824219 89.109375 13.976562 87.972656 14.0625 C 86.832031 14.148438 85.980469 15.144531 86.070312 16.277344 C 86.152344 17.417969 87.148438 18.269531 88.285156 18.179688 " fill-opacity="1" fill-rule="nonzero"/><path fill="#20468f" d="M 92.890625 23.210938 L 89.601562 22.433594 C 88.707031 19.21875 89.199219 19.769531 86.324219 18.609375 C 85.484375 18.273438 84.691406 18.535156 84.300781 19.171875 C 83.121094 21.09375 80.9375 24.980469 81.78125 26.023438 C 81.765625 26.480469 81.628906 30.117188 81.609375 30.582031 L 80.160156 34.214844 C 79.957031 34.722656 80.207031 35.300781 80.710938 35.5 C 81.222656 35.707031 81.796875 35.457031 82.003906 34.949219 C 83.898438 30.210938 83.453125 31.574219 84.097656 28.796875 L 86.136719 31.171875 L 86.664062 34.929688 C 86.84375 36.207031 88.8125 35.96875 88.628906 34.65625 L 88.035156 30.417969 L 85.875 27.363281 L 87.574219 23.167969 L 87.273438 20.398438 C 87.394531 20.835938 87.953125 23.328125 88.082031 23.785156 L 92.566406 24.703125 C 92.96875 24.78125 93.363281 24.53125 93.460938 24.128906 C 93.558594 23.714844 93.300781 23.304688 92.890625 23.210938 " fill-opacity="1" fill-rule="nonzero"/><g fill="#20468f" fill-opacity="1"><g transform="translate(3.492817, 51.755517)"><g><path d="M 3.503906 0 L 6.296875 0 L 8.613281 -6.671875 L 8.671875 -6.875 L 8.699219 -6.875 L 8.757812 -6.683594 L 11.085938 0 L 13.878906 0 L 17.289062 -8.914062 L 14.863281 -8.914062 L 12.464844 -2.050781 L 12.390625 -1.761719 L 12.378906 -1.761719 L 12.296875 -2.0625 L 9.859375 -8.914062 L 7.511719 -8.914062 L 5.085938 -2.0625 L 5.003906 -1.761719 L 4.980469 -1.761719 L 4.90625 -2.050781 L 2.507812 -8.914062 L 0.0976562 -8.914062 Z M 3.503906 0 "/></g></g></g><g fill="#20468f" fill-opacity="1"><g transform="translate(24.317185, 51.755517)"><g><path d="M 0.0976562 0 L 2.628906 0 L 3.585938 -1.96875 L 8.984375 -1.96875 L 9.933594 0 L 12.488281 0 L 7.796875 -8.914062 L 4.75 -8.914062 Z M 4.320312 -3.492188 L 6.191406 -7.328125 L 6.273438 -7.535156 L 6.296875 -7.535156 L 6.394531 -7.328125 L 8.253906 -3.492188 Z M 4.320312 -3.492188 "/></g></g></g><g fill="#20468f" fill-opacity="1"><g transform="translate(40.331653, 51.755517)"><g><path d="M 1.222656 0 L 3.515625 0 L 3.515625 -2.9375 L 6.503906 -2.9375 C 8.097656 -2.9375 8.601562 -2.640625 8.757812 -1.945312 L 8.914062 -1.285156 C 9.09375 -0.503906 9.1875 -0.226562 9.308594 0 L 11.683594 0 C 11.492188 -0.382812 11.371094 -0.707031 11.203125 -1.425781 L 11.0625 -2.027344 C 10.761719 -3.335938 10.304688 -3.671875 9.296875 -3.886719 L 9.296875 -3.898438 C 10.726562 -4.164062 11.613281 -4.992188 11.613281 -6.285156 C 11.613281 -7.808594 10.449219 -8.914062 7.378906 -8.914062 L 1.222656 -8.914062 Z M 3.515625 -4.535156 L 3.515625 -7.246094 L 7.328125 -7.246094 C 8.734375 -7.246094 9.308594 -6.753906 9.308594 -5.972656 C 9.308594 -5.003906 8.519531 -4.535156 7.199219 -4.535156 Z M 3.515625 -4.535156 "/></g></g></g><g fill="#20468f" fill-opacity="1"><g transform="translate(56.034258, 51.755517)"><g><path d="M 1.222656 0 L 10.675781 0 L 10.675781 -1.667969 L 3.515625 -1.667969 L 3.515625 -3.816406 L 10.078125 -3.816406 L 10.078125 -5.351562 L 3.515625 -5.351562 L 3.515625 -7.246094 L 10.582031 -7.246094 L 10.582031 -8.914062 L 1.222656 -8.914062 Z M 1.222656 0 "/></g></g></g><g fill="#20468f" fill-opacity="1"><g transform="translate(70.609362, 51.755517)"><g><path d="M 10.027344 0 L 12.320312 0 L 12.320312 -8.914062 L 10.027344 -8.914062 L 10.027344 -5.496094 L 3.515625 -5.496094 L 3.515625 -8.914062 L 1.222656 -8.914062 L 1.222656 0 L 3.515625 0 L 3.515625 -3.816406 L 10.027344 -3.816406 Z M 10.027344 0 "/></g></g></g><g fill="#20468f" fill-opacity="1"><g transform="translate(87.595404, 51.755517)"><g><path d="M 6.742188 0.214844 C 10.605469 0.214844 13.003906 -1.453125 13.003906 -4.449219 C 13.003906 -7.449219 10.605469 -9.105469 6.742188 -9.105469 C 2.867188 -9.105469 0.46875 -7.449219 0.46875 -4.449219 C 0.46875 -1.453125 2.867188 0.214844 6.742188 0.214844 Z M 2.785156 -4.449219 C 2.785156 -6.417969 4.390625 -7.484375 6.742188 -7.484375 C 9.082031 -7.484375 10.6875 -6.371094 10.6875 -4.449219 C 10.6875 -2.542969 9.082031 -1.414062 6.742188 -1.414062 C 4.390625 -1.414062 2.785156 -2.496094 2.785156 -4.449219 Z M 2.785156 -4.449219 "/></g></g></g><g fill="#20468f" fill-opacity="1"><g transform="translate(104.509477, 51.755517)"><g><path d="M 6.347656 0.214844 C 10.316406 0.214844 11.828125 -1.308594 11.828125 -4.140625 L 11.828125 -8.914062 L 9.523438 -8.914062 L 9.523438 -4.164062 C 9.523438 -2.328125 8.445312 -1.414062 6.359375 -1.414062 C 4.257812 -1.414062 3.179688 -2.328125 3.179688 -4.175781 L 3.179688 -8.914062 L 0.875 -8.914062 L 0.875 -4.152344 C 0.875 -1.285156 2.433594 0.214844 6.347656 0.214844 Z M 6.347656 0.214844 "/></g></g></g><g fill="#20468f" fill-opacity="1"><g transform="translate(120.655889, 51.755517)"><g><path d="M 5.792969 0.214844 C 9.023438 0.214844 10.796875 -0.671875 10.796875 -2.566406 C 10.796875 -3.804688 10.257812 -4.882812 5.664062 -5.339844 C 3.382812 -5.554688 3.167969 -5.972656 3.167969 -6.476562 C 3.167969 -7.054688 3.777344 -7.511719 5.625 -7.511719 C 7.679688 -7.511719 8.3125 -6.777344 8.433594 -5.972656 L 10.570312 -5.972656 C 10.390625 -7.785156 8.949219 -9.105469 5.53125 -9.105469 C 2.050781 -9.105469 0.851562 -7.871094 0.851562 -6.527344 C 0.851562 -5.148438 1.558594 -4.101562 5.445312 -3.707031 C 8.207031 -3.429688 8.492188 -3.144531 8.492188 -2.507812 C 8.492188 -1.761719 7.691406 -1.378906 5.792969 -1.378906 C 3.46875 -1.378906 2.769531 -2.0625 2.710938 -2.953125 L 0.480469 -2.953125 C 0.574219 -1.257812 2.085938 0.214844 5.792969 0.214844 Z M 5.792969 0.214844 "/></g></g></g><g fill="#20468f" fill-opacity="1"><g transform="translate(135.374924, 51.755517)"><g><path d="M 1.222656 0 L 10.675781 0 L 10.675781 -1.667969 L 3.515625 -1.667969 L 3.515625 -3.816406 L 10.078125 -3.816406 L 10.078125 -5.351562 L 3.515625 -5.351562 L 3.515625 -7.246094 L 10.582031 -7.246094 L 10.582031 -8.914062 L 1.222656 -8.914062 Z M 1.222656 0 "/></g></g></g><g fill="#4e6592" fill-opacity="1"><g transform="translate(26.69878, 60.266646)"><g><path d="M 1.929688 0.105469 C 3.003906 0.105469 3.6875 -0.398438 3.6875 -1.292969 C 3.6875 -2.097656 3.320312 -2.511719 2.082031 -2.886719 C 1.703125 -3.011719 1.519531 -3.109375 1.519531 -3.359375 L 1.519531 -3.363281 C 1.519531 -3.550781 1.628906 -3.695312 1.910156 -3.695312 C 2.257812 -3.695312 2.375 -3.488281 2.382812 -3.164062 L 3.613281 -3.164062 C 3.621094 -4.125 3.058594 -4.726562 1.902344 -4.726562 C 0.820312 -4.726562 0.199219 -4.210938 0.199219 -3.371094 L 0.199219 -3.363281 C 0.199219 -2.625 0.515625 -2.28125 1.523438 -1.945312 C 2.175781 -1.699219 2.355469 -1.636719 2.355469 -1.300781 C 2.355469 -1.074219 2.226562 -0.921875 1.933594 -0.921875 C 1.53125 -0.921875 1.425781 -1.175781 1.425781 -1.46875 L 0.136719 -1.46875 C 0.144531 -0.433594 0.753906 0.105469 1.929688 0.105469 Z M 1.929688 0.105469 "/></g></g></g><g fill="#4e6592" fill-opacity="1"><g transform="translate(32.004206, 60.266646)"><g><path d="M 2.078125 0.105469 C 3.308594 0.105469 3.945312 -0.578125 3.945312 -1.898438 L 3.945312 -2.722656 C 3.945312 -4.035156 3.308594 -4.726562 2.070312 -4.726562 C 0.839844 -4.726562 0.207031 -4.035156 0.207031 -2.722656 L 0.207031 -1.898438 C 0.207031 -0.578125 0.839844 0.105469 2.078125 0.105469 Z M 1.546875 -1.753906 L 1.546875 -2.867188 C 1.546875 -3.378906 1.734375 -3.609375 2.078125 -3.609375 C 2.417969 -3.609375 2.601562 -3.378906 2.601562 -2.867188 L 2.601562 -1.753906 C 2.601562 -1.242188 2.417969 -1.015625 2.078125 -1.015625 C 1.734375 -1.015625 1.546875 -1.242188 1.546875 -1.753906 Z M 1.546875 -1.753906 "/></g></g></g><g fill="#4e6592" fill-opacity="1"><g transform="translate(37.633006, 60.266646)"><g><path d="M 0.316406 0 L 3.136719 0 L 3.136719 -1.101562 L 1.65625 -1.101562 L 1.65625 -4.628906 L 0.316406 -4.628906 Z M 0.316406 0 "/></g></g></g><g fill="#4e6592" fill-opacity="1"><g transform="translate(42.341432, 60.266646)"><g><path d="M 2.070312 0.105469 C 3.378906 0.105469 3.894531 -0.484375 3.894531 -1.785156 L 3.894531 -4.628906 L 2.554688 -4.628906 L 2.554688 -1.671875 C 2.554688 -1.226562 2.386719 -1.015625 2.078125 -1.015625 C 1.761719 -1.015625 1.59375 -1.226562 1.59375 -1.671875 L 1.59375 -4.628906 L 0.253906 -4.628906 L 0.253906 -1.777344 C 0.253906 -0.480469 0.777344 0.105469 2.070312 0.105469 Z M 2.070312 0.105469 "/></g></g></g><g fill="#4e6592" fill-opacity="1"><g transform="translate(47.970231, 60.266646)"><g><path d="M 1.019531 0 L 2.355469 0 L 2.355469 -3.519531 L 3.332031 -3.519531 L 3.332031 -4.628906 L 0.0507812 -4.628906 L 0.0507812 -3.519531 L 1.019531 -3.519531 Z M 1.019531 0 "/></g></g></g><g fill="#4e6592" fill-opacity="1"><g transform="translate(52.834122, 60.266646)"><g><path d="M 0.316406 0 L 1.65625 0 L 1.65625 -4.628906 L 0.316406 -4.628906 Z M 0.316406 0 "/></g></g></g><g fill="#4e6592" fill-opacity="1"><g transform="translate(56.292578, 60.266646)"><g><path d="M 2.078125 0.105469 C 3.308594 0.105469 3.945312 -0.578125 3.945312 -1.898438 L 3.945312 -2.722656 C 3.945312 -4.035156 3.308594 -4.726562 2.070312 -4.726562 C 0.839844 -4.726562 0.207031 -4.035156 0.207031 -2.722656 L 0.207031 -1.898438 C 0.207031 -0.578125 0.839844 0.105469 2.078125 0.105469 Z M 1.546875 -1.753906 L 1.546875 -2.867188 C 1.546875 -3.378906 1.734375 -3.609375 2.078125 -3.609375 C 2.417969 -3.609375 2.601562 -3.378906 2.601562 -2.867188 L 2.601562 -1.753906 C 2.601562 -1.242188 2.417969 -1.015625 2.078125 -1.015625 C 1.734375 -1.015625 1.546875 -1.242188 1.546875 -1.753906 Z M 1.546875 -1.753906 "/></g></g></g><g fill="#4e6592" fill-opacity="1"><g transform="translate(61.921377, 60.266646)"><g><path d="M 0.316406 0 L 1.597656 0 L 1.597656 -2.089844 L 1.59375 -2.46875 L 1.597656 -2.46875 L 1.742188 -2.140625 L 2.71875 0 L 4.09375 0 L 4.09375 -4.628906 L 2.816406 -4.628906 L 2.816406 -2.511719 L 2.824219 -2.132812 L 2.8125 -2.132812 L 2.675781 -2.46875 L 1.699219 -4.628906 L 0.316406 -4.628906 Z M 0.316406 0 "/></g></g></g><g fill="#4e6592" fill-opacity="1"><g transform="translate(67.817581, 60.266646)"><g/></g></g><g fill="#4e6592" fill-opacity="1"><g transform="translate(71.126788, 60.266646)"><g><path d="M 0.316406 0 L 1.65625 0 L 1.65625 -4.628906 L 0.316406 -4.628906 Z M 0.316406 0 "/></g></g></g><g fill="#4e6592" fill-opacity="1"><g transform="translate(74.585243, 60.266646)"><g><path d="M 0.316406 0 L 1.597656 0 L 1.597656 -2.089844 L 1.59375 -2.46875 L 1.597656 -2.46875 L 1.742188 -2.140625 L 2.71875 0 L 4.09375 0 L 4.09375 -4.628906 L 2.816406 -4.628906 L 2.816406 -2.511719 L 2.824219 -2.132812 L 2.8125 -2.132812 L 2.675781 -2.46875 L 1.699219 -4.628906 L 0.316406 -4.628906 Z M 0.316406 0 "/></g></g></g><g fill="#4e6592" fill-opacity="1"><g transform="translate(80.481448, 60.266646)"><g><path d="M 0.316406 0 L 1.597656 0 L 1.597656 -2.089844 L 1.59375 -2.46875 L 1.597656 -2.46875 L 1.742188 -2.140625 L 2.71875 0 L 4.09375 0 L 4.09375 -4.628906 L 2.816406 -4.628906 L 2.816406 -2.511719 L 2.824219 -2.132812 L 2.8125 -2.132812 L 2.675781 -2.46875 L 1.699219 -4.628906 L 0.316406 -4.628906 Z M 0.316406 0 "/></g></g></g><g fill="#4e6592" fill-opacity="1"><g transform="translate(86.377652, 60.266646)"><g><path d="M 2.078125 0.105469 C 3.308594 0.105469 3.945312 -0.578125 3.945312 -1.898438 L 3.945312 -2.722656 C 3.945312 -4.035156 3.308594 -4.726562 2.070312 -4.726562 C 0.839844 -4.726562 0.207031 -4.035156 0.207031 -2.722656 L 0.207031 -1.898438 C 0.207031 -0.578125 0.839844 0.105469 2.078125 0.105469 Z M 1.546875 -1.753906 L 1.546875 -2.867188 C 1.546875 -3.378906 1.734375 -3.609375 2.078125 -3.609375 C 2.417969 -3.609375 2.601562 -3.378906 2.601562 -2.867188 L 2.601562 -1.753906 C 2.601562 -1.242188 2.417969 -1.015625 2.078125 -1.015625 C 1.734375 -1.015625 1.546875 -1.242188 1.546875 -1.753906 Z M 1.546875 -1.753906 "/></g></g></g><g fill="#4e6592" fill-opacity="1"><g transform="translate(92.006451, 60.266646)"><g><path d="M 0.0390625 -4.628906 L 1.226562 0 L 3.011719 0 L 4.210938 -4.628906 L 2.824219 -4.628906 L 2.164062 -1.34375 L 2.128906 -1.089844 L 2.113281 -1.089844 L 2.078125 -1.34375 L 1.417969 -4.628906 Z M 0.0390625 -4.628906 "/></g></g></g><g fill="#4e6592" fill-opacity="1"><g transform="translate(97.728533, 60.266646)"><g><path d="M 0.0390625 0 L 1.417969 0 L 1.578125 -0.769531 L 2.699219 -0.769531 L 2.855469 0 L 4.242188 0 L 3.035156 -4.628906 L 1.238281 -4.628906 Z M 1.785156 -1.765625 L 2.058594 -3.085938 L 2.132812 -3.507812 L 2.144531 -3.507812 L 2.21875 -3.085938 L 2.496094 -1.765625 Z M 1.785156 -1.765625 "/></g></g></g><g fill="#4e6592" fill-opacity="1"><g transform="translate(103.481706, 60.266646)"><g><path d="M 1.019531 0 L 2.355469 0 L 2.355469 -3.519531 L 3.332031 -3.519531 L 3.332031 -4.628906 L 0.0507812 -4.628906 L 0.0507812 -3.519531 L 1.019531 -3.519531 Z M 1.019531 0 "/></g></g></g><g fill="#4e6592" fill-opacity="1"><g transform="translate(108.345598, 60.266646)"><g><path d="M 2.078125 0.105469 C 3.308594 0.105469 3.945312 -0.578125 3.945312 -1.898438 L 3.945312 -2.722656 C 3.945312 -4.035156 3.308594 -4.726562 2.070312 -4.726562 C 0.839844 -4.726562 0.207031 -4.035156 0.207031 -2.722656 L 0.207031 -1.898438 C 0.207031 -0.578125 0.839844 0.105469 2.078125 0.105469 Z M 1.546875 -1.753906 L 1.546875 -2.867188 C 1.546875 -3.378906 1.734375 -3.609375 2.078125 -3.609375 C 2.417969 -3.609375 2.601562 -3.378906 2.601562 -2.867188 L 2.601562 -1.753906 C 2.601562 -1.242188 2.417969 -1.015625 2.078125 -1.015625 C 1.734375 -1.015625 1.546875 -1.242188 1.546875 -1.753906 Z M 1.546875 -1.753906 "/></g></g></g><g fill="#4e6592" fill-opacity="1"><g transform="translate(113.974402, 60.266646)"><g><path d="M 0.316406 0 L 1.65625 0 L 1.65625 -1.523438 L 1.964844 -1.523438 C 2.300781 -1.523438 2.449219 -1.367188 2.480469 -1.0625 L 2.511719 -0.734375 C 2.542969 -0.378906 2.582031 -0.136719 2.617188 0 L 3.949219 0 C 3.886719 -0.136719 3.851562 -0.355469 3.832031 -0.570312 L 3.800781 -0.96875 C 3.761719 -1.523438 3.582031 -1.941406 3.136719 -2.046875 L 3.136719 -2.050781 C 3.613281 -2.183594 3.875 -2.605469 3.875 -3.191406 L 3.875 -3.242188 C 3.875 -4.125 3.339844 -4.628906 2.1875 -4.628906 L 0.316406 -4.628906 Z M 1.65625 -2.457031 L 1.65625 -3.59375 L 2.089844 -3.59375 C 2.382812 -3.59375 2.542969 -3.441406 2.542969 -3.078125 L 2.542969 -3.023438 C 2.542969 -2.59375 2.34375 -2.457031 2.050781 -2.457031 Z M 1.65625 -2.457031 "/></g></g></g><g fill="#4e6592" fill-opacity="1"><g transform="translate(119.472612, 60.266646)"><g><path d="M 1.929688 0.105469 C 3.003906 0.105469 3.6875 -0.398438 3.6875 -1.292969 C 3.6875 -2.097656 3.320312 -2.511719 2.082031 -2.886719 C 1.703125 -3.011719 1.519531 -3.109375 1.519531 -3.359375 L 1.519531 -3.363281 C 1.519531 -3.550781 1.628906 -3.695312 1.910156 -3.695312 C 2.257812 -3.695312 2.375 -3.488281 2.382812 -3.164062 L 3.613281 -3.164062 C 3.621094 -4.125 3.058594 -4.726562 1.902344 -4.726562 C 0.820312 -4.726562 0.199219 -4.210938 0.199219 -3.371094 L 0.199219 -3.363281 C 0.199219 -2.625 0.515625 -2.28125 1.523438 -1.945312 C 2.175781 -1.699219 2.355469 -1.636719 2.355469 -1.300781 C 2.355469 -1.074219 2.226562 -0.921875 1.933594 -0.921875 C 1.53125 -0.921875 1.425781 -1.175781 1.425781 -1.46875 L 0.136719 -1.46875 C 0.144531 -0.433594 0.753906 0.105469 1.929688 0.105469 Z M 1.929688 0.105469 "/></g></g></g></svg>